<?xml version="1.0" encoding="utf-8"?>
<!-- Generator: Adobe Illustrator 17.0.0, SVG Export Plug-In . SVG Version: 6.00 Build 0)  -->
<!DOCTYPE svg PUBLIC "-//W3C//DTD SVG 1.1//EN" "http://www.w3.org/Graphics/SVG/1.1/DTD/svg11.dtd">
<svg version="1.1" id="图层_1" xmlns="http://www.w3.org/2000/svg" xmlns:xlink="http://www.w3.org/1999/xlink" x="0px" y="0px"
	 width="64px" height="64px" viewBox="0 0 64 64" enable-background="new 0 0 64 64" xml:space="preserve">
<g>
	<g id="Oval">
		<path fill="#545D66" d="M31.999,2C15.432,2,2,15.432,2,32.001C2,48.568,15.432,62,31.999,62C48.568,62,62,48.568,62,32.001
			c0-0.799-0.648-1.445-1.445-1.445c-0.798,0-1.445,0.646-1.445,1.445c0,14.972-12.138,27.108-27.11,27.108
			c-14.972,0-27.109-12.137-27.109-27.108c0-14.973,12.138-27.109,27.109-27.109c7.574,0,14.643,3.118,19.735,8.521
			c0.547,0.582,1.461,0.608,2.043,0.061c0.58-0.548,0.608-1.462,0.06-2.044C48.206,5.453,40.378,2,31.999,2z"/>
	</g>
	<g id="Oval_1_">
		<path fill="#545D66" d="M48.731,32.23c0-9.111-7.388-16.499-16.501-16.499c-9.113,0-16.501,7.388-16.501,16.499
			c0,9.114,7.388,16.502,16.501,16.502C41.344,48.732,48.731,41.345,48.731,32.23z M18.62,32.23c0-7.517,6.093-13.61,13.61-13.61
			c7.518,0,13.612,6.094,13.612,13.61c0,7.519-6.095,13.612-13.612,13.612C24.713,45.843,18.62,39.749,18.62,32.23z"/>
	</g>
	<linearGradient id="SVGID_1_" gradientUnits="userSpaceOnUse" x1="39.1557" y1="26.2233" x2="62.0804" y2="11.5464">
		<stop  offset="0" style="stop-color:#7A75FD"/>
		<stop  offset="1" style="stop-color:#0B8BFF"/>
	</linearGradient>
	<path fill="url(#SVGID_1_)" d="M53.394,11.8c-0.547-0.581-1.463-0.608-2.043-0.06L34.617,27.522
		c-0.834-0.595-1.848-0.954-2.95-0.954c-2.815,0-5.1,2.284-5.1,5.099c0,2.816,2.284,5.101,5.1,5.101c2.815,0,5.1-2.284,5.1-5.101
		c0-0.657-0.135-1.281-0.361-1.857l16.93-15.967C53.915,13.296,53.941,12.381,53.394,11.8z"/>
</g>
</svg>
